<svg xmlns="http://www.w3.org/2000/svg" xmlns:xlink="http://www.w3.org/1999/xlink" width="500" zoomAndPan="magnify" viewBox="0 0 375 374.999991" height="500" preserveAspectRatio="xMidYMid meet" version="1.0"><defs><g/><clipPath id="ef4a567c21"><path d="M 107.007812 129.238281 L 170.007812 129.238281 L 170.007812 193.738281 L 107.007812 193.738281 Z M 107.007812 129.238281 " clip-rule="nonzero"/></clipPath></defs><rect x="-37.5" width="450" fill="#ffffff" y="-37.499999" height="449.999989" fill-opacity="1"/><rect x="-37.5" width="450" fill="#000000" y="-37.499999" height="449.999989" fill-opacity="1"/><g fill="#ffffff" fill-opacity="1"><g transform="translate(62.323904, 202.892708)"><g><path d="M 79.40625 0 L 54.046875 0 L 24.28125 -34.265625 L 24.28125 0 L 5.875 0 L 5.875 -80.765625 L 24.28125 -80.765625 L 24.28125 -47.78125 L 51.984375 -80.765625 L 74.3125 -80.765625 L 41.8125 -42.484375 Z M 79.40625 0 "/></g></g></g><g fill="#ffffff" fill-opacity="1"><g transform="translate(131.732147, 202.892708)"><g><path d="M 5.875 -80.765625 L 35.34375 -80.765625 C 43.570312 -80.765625 50.226562 -78.644531 55.3125 -74.40625 C 60.40625 -70.164062 62.953125 -64 62.953125 -55.90625 C 62.953125 -47.8125 60.375 -41.460938 55.21875 -36.859375 C 50.0625 -32.253906 43.4375 -29.953125 35.34375 -29.953125 L 24.28125 -29.953125 L 24.28125 0 L 5.875 0 Z M 24.28125 -44.640625 L 29.46875 -44.640625 C 33.582031 -44.640625 36.957031 -45.472656 39.59375 -47.140625 C 42.238281 -48.804688 43.5625 -51.53125 43.5625 -55.3125 C 43.5625 -59.164062 42.238281 -61.925781 39.59375 -63.59375 C 36.957031 -65.257812 33.582031 -66.09375 29.46875 -66.09375 L 24.28125 -66.09375 Z M 24.28125 -44.640625 "/></g></g></g><g fill="#ffffff" fill-opacity="1"><g transform="translate(189.294825, 202.892708)"><g><path d="M 35.640625 -82.234375 C 40.015625 -82.234375 44.289062 -81.597656 48.46875 -80.328125 C 52.644531 -79.054688 55.742188 -77.800781 57.765625 -76.5625 L 60.703125 -74.609375 L 53.265625 -59.921875 C 52.671875 -60.304688 51.851562 -60.804688 50.8125 -61.421875 C 49.769531 -62.046875 47.8125 -62.878906 44.9375 -63.921875 C 42.0625 -64.972656 39.382812 -65.5 36.90625 -65.5 C 33.84375 -65.5 31.476562 -64.84375 29.8125 -63.53125 C 28.144531 -62.226562 27.3125 -60.46875 27.3125 -58.25 C 27.3125 -57.144531 27.703125 -56.117188 28.484375 -55.171875 C 29.273438 -54.222656 30.613281 -53.207031 32.5 -52.125 C 34.394531 -51.050781 36.0625 -50.1875 37.5 -49.53125 C 38.9375 -48.882812 41.15625 -47.910156 44.15625 -46.609375 C 49.375 -44.390625 53.828125 -41.367188 57.515625 -37.546875 C 61.203125 -33.722656 63.046875 -29.398438 63.046875 -24.578125 C 63.046875 -19.941406 62.210938 -15.894531 60.546875 -12.4375 C 58.890625 -8.976562 56.609375 -6.269531 53.703125 -4.3125 C 50.796875 -2.351562 47.578125 -0.898438 44.046875 0.046875 C 40.523438 0.992188 36.710938 1.46875 32.609375 1.46875 C 29.078125 1.46875 25.613281 1.109375 22.21875 0.390625 C 18.832031 -0.328125 15.992188 -1.222656 13.703125 -2.296875 C 11.421875 -3.378906 9.363281 -4.441406 7.53125 -5.484375 C 5.707031 -6.523438 4.375 -7.40625 3.53125 -8.125 L 2.25 -9.203125 L 11.453125 -24.671875 C 12.234375 -24.015625 13.304688 -23.179688 14.671875 -22.171875 C 16.046875 -21.160156 18.476562 -19.804688 21.96875 -18.109375 C 25.46875 -16.410156 28.554688 -15.5625 31.234375 -15.5625 C 39.003906 -15.5625 42.890625 -18.207031 42.890625 -23.5 C 42.890625 -24.601562 42.609375 -25.628906 42.046875 -26.578125 C 41.492188 -27.523438 40.515625 -28.472656 39.109375 -29.421875 C 37.710938 -30.367188 36.472656 -31.117188 35.390625 -31.671875 C 34.316406 -32.222656 32.554688 -33.070312 30.109375 -34.21875 C 27.660156 -35.363281 25.847656 -36.226562 24.671875 -36.8125 C 19.773438 -39.226562 15.988281 -42.242188 13.3125 -45.859375 C 10.632812 -49.484375 9.296875 -53.382812 9.296875 -57.5625 C 9.296875 -64.8125 11.972656 -70.734375 17.328125 -75.328125 C 22.679688 -79.929688 28.785156 -82.234375 35.640625 -82.234375 Z M 35.640625 -82.234375 "/></g></g></g><g fill="#ffffff" fill-opacity="1"><g transform="translate(247.444893, 202.892708)"><g><path d="M 5.875 -80.765625 L 35.34375 -80.765625 C 43.570312 -80.765625 50.226562 -78.644531 55.3125 -74.40625 C 60.40625 -70.164062 62.953125 -64 62.953125 -55.90625 C 62.953125 -47.8125 60.375 -41.460938 55.21875 -36.859375 C 50.0625 -32.253906 43.4375 -29.953125 35.34375 -29.953125 L 24.28125 -29.953125 L 24.28125 0 L 5.875 0 Z M 24.28125 -44.640625 L 29.46875 -44.640625 C 33.582031 -44.640625 36.957031 -45.472656 39.59375 -47.140625 C 42.238281 -48.804688 43.5625 -51.53125 43.5625 -55.3125 C 43.5625 -59.164062 42.238281 -61.925781 39.59375 -63.59375 C 36.957031 -65.257812 33.582031 -66.09375 29.46875 -66.09375 L 24.28125 -66.09375 Z M 24.28125 -44.640625 "/></g></g></g><g clip-path="url(#ef4a567c21)"><path fill="#000000" d="M 170.003906 160.984375 L 160.710938 160.984375 C 144.808594 157.554688 141.273438 154.015625 137.832031 138.140625 L 137.832031 129.238281 L 136.65625 129.238281 L 136.65625 138.234375 C 133.21875 154.03125 129.664062 157.5625 113.792969 160.984375 L 107.015625 160.984375 L 107.015625 162.15625 L 113.792969 162.15625 C 129.664062 165.582031 133.21875 169.113281 136.65625 184.910156 L 136.65625 193.738281 L 137.832031 193.738281 L 137.832031 185.003906 C 141.273438 169.125 144.808594 165.589844 160.710938 162.15625 L 170.003906 162.15625 Z M 170.003906 160.984375 " fill-opacity="1" fill-rule="nonzero"/></g><g fill="#ffffff" fill-opacity="1"><g transform="translate(131.987618, 228.858804)"><g><path d="M 1.28125 -9.5 L 3.40625 -9.5 C 3.84375 -9.5 4.242188 -9.4375 4.609375 -9.3125 C 4.984375 -9.195312 5.300781 -9.023438 5.5625 -8.796875 C 5.820312 -8.578125 6.023438 -8.316406 6.171875 -8.015625 C 6.328125 -7.710938 6.40625 -7.378906 6.40625 -7.015625 C 6.40625 -6.585938 6.296875 -6.203125 6.078125 -5.859375 C 5.867188 -5.515625 5.566406 -5.234375 5.171875 -5.015625 C 5.710938 -4.816406 6.144531 -4.507812 6.46875 -4.09375 C 6.789062 -3.6875 6.953125 -3.210938 6.953125 -2.671875 C 6.953125 -2.273438 6.867188 -1.914062 6.703125 -1.59375 C 6.546875 -1.28125 6.320312 -1 6.03125 -0.75 C 5.75 -0.507812 5.40625 -0.320312 5 -0.1875 C 4.59375 -0.0625 4.15625 0 3.6875 0 L 1.28125 0 Z M 3.6875 -0.921875 C 4.363281 -0.921875 4.910156 -1.082031 5.328125 -1.40625 C 5.742188 -1.738281 5.953125 -2.175781 5.953125 -2.71875 C 5.953125 -3.257812 5.742188 -3.691406 5.328125 -4.015625 C 4.910156 -4.347656 4.363281 -4.515625 3.6875 -4.515625 L 2.265625 -4.515625 L 2.265625 -0.921875 Z M 3.40625 -5.390625 C 4.019531 -5.390625 4.507812 -5.53125 4.875 -5.8125 C 5.238281 -6.101562 5.421875 -6.488281 5.421875 -6.96875 C 5.421875 -7.457031 5.234375 -7.847656 4.859375 -8.140625 C 4.492188 -8.429688 4.007812 -8.578125 3.40625 -8.578125 L 2.265625 -8.578125 L 2.265625 -5.390625 Z M 3.40625 -5.390625 "/></g></g></g><g fill="#ffffff" fill-opacity="1"><g transform="translate(144.046925, 228.858804)"><g><path d="M 1.28125 -9.5 L 2.265625 -9.5 L 2.265625 -5.140625 L 6.15625 -9.5 L 7.390625 -9.5 L 3.328125 -4.953125 L 7.578125 0 L 6.25 0 L 2.265625 -4.65625 L 2.265625 0 L 1.28125 0 Z M 1.28125 -9.5 "/></g></g></g><g fill="#ffffff" fill-opacity="1"><g transform="translate(155.950177, 228.858804)"><g><path d="M 1.28125 -9.5 L 2.265625 -9.5 L 2.265625 -5.140625 L 6.15625 -9.5 L 7.390625 -9.5 L 3.328125 -4.953125 L 7.578125 0 L 6.25 0 L 2.265625 -4.65625 L 2.265625 0 L 1.28125 0 Z M 1.28125 -9.5 "/></g></g></g><g fill="#ffffff" fill-opacity="1"><g transform="translate(167.85343, 228.858804)"><g/></g></g><g fill="#ffffff" fill-opacity="1"><g transform="translate(175.230943, 228.858804)"><g><path d="M 3.546875 -8.578125 L 0.421875 -8.578125 L 0.421875 -9.5 L 7.65625 -9.5 L 7.65625 -8.578125 L 4.546875 -8.578125 L 4.546875 0 L 3.546875 0 Z M 3.546875 -8.578125 "/></g></g></g><g fill="#ffffff" fill-opacity="1"><g transform="translate(187.573999, 228.858804)"><g><path d="M 1.28125 -9.5 L 3.546875 -9.5 C 4.015625 -9.5 4.453125 -9.429688 4.859375 -9.296875 C 5.265625 -9.160156 5.609375 -8.96875 5.890625 -8.71875 C 6.179688 -8.46875 6.40625 -8.171875 6.5625 -7.828125 C 6.726562 -7.492188 6.8125 -7.117188 6.8125 -6.703125 C 6.8125 -6.378906 6.757812 -6.070312 6.65625 -5.78125 C 6.550781 -5.488281 6.40625 -5.226562 6.21875 -5 C 6.03125 -4.769531 5.800781 -4.570312 5.53125 -4.40625 C 5.269531 -4.238281 4.984375 -4.113281 4.671875 -4.03125 L 7.375 0 L 6.1875 0 L 3.546875 -3.921875 L 2.265625 -3.921875 L 2.265625 0 L 1.28125 0 Z M 3.546875 -4.84375 C 4.222656 -4.84375 4.769531 -5.007812 5.1875 -5.34375 C 5.601562 -5.6875 5.8125 -6.144531 5.8125 -6.71875 C 5.8125 -7.289062 5.601562 -7.742188 5.1875 -8.078125 C 4.769531 -8.410156 4.222656 -8.578125 3.546875 -8.578125 L 2.265625 -8.578125 L 2.265625 -4.84375 Z M 3.546875 -4.84375 "/></g></g></g><g fill="#ffffff" fill-opacity="1"><g transform="translate(199.775179, 228.858804)"><g><path d="M 4.046875 -9.796875 L 4.328125 -9.796875 L 7.9375 0 L 6.859375 0 L 5.953125 -2.5 L 2.359375 -2.5 L 1.46875 0 L 0.421875 0 Z M 5.625 -3.421875 L 4.15625 -7.53125 L 2.6875 -3.421875 Z M 5.625 -3.421875 "/></g></g></g><g fill="#ffffff" fill-opacity="1"><g transform="translate(212.401972, 228.858804)"><g><path d="M 0.421875 -9.5 L 1.46875 -9.5 L 4.078125 -2.078125 L 6.828125 -9.5 L 7.796875 -9.5 L 4.15625 0.28125 L 3.875 0.28125 Z M 0.421875 -9.5 "/></g></g></g><g fill="#ffffff" fill-opacity="1"><g transform="translate(224.88689, 228.858804)"><g><path d="M 1.28125 -9.5 L 6.171875 -9.5 L 6.171875 -8.578125 L 2.265625 -8.578125 L 2.265625 -5.390625 L 5.25 -5.390625 L 5.25 -4.46875 L 2.265625 -4.46875 L 2.265625 -0.921875 L 6.25 -0.921875 L 6.25 0 L 1.28125 0 Z M 1.28125 -9.5 "/></g></g></g><g fill="#ffffff" fill-opacity="1"><g transform="translate(236.236832, 228.858804)"><g><path d="M 1.28125 -9.5 L 2.265625 -9.5 L 2.265625 -0.921875 L 6.09375 -0.921875 L 6.09375 0 L 1.28125 0 Z M 1.28125 -9.5 "/></g></g></g></svg>